<svg xmlns="http://www.w3.org/2000/svg" viewBox="0 0 800 600" preserveAspectRatio="xMidYMid slice" role="img"><defs><pattern id="stone" width="140" height="110" patternUnits="userSpaceOnUse"><rect width="140" height="110" fill="#f4f2ee"/><ellipse cx="69" cy="72" rx="1.4" ry="1.1" fill="#e6e3dd" opacity="0.67"/><ellipse cx="39" cy="76" rx="1.5" ry="1.8" fill="#e6e3dd" opacity="0.49"/><ellipse cx="126" cy="90" rx="0.8" ry="0.9" fill="#d8d4cc" opacity="0.68"/><ellipse cx="67" cy="75" rx="0.8" ry="1.0" fill="#e6e3dd" opacity="0.72"/><ellipse cx="127" cy="76" rx="3.4" ry="2.5" fill="#d8d4cc" opacity="0.31"/><ellipse cx="95" cy="3" rx="2.4" ry="1.9" fill="#e6e3dd" opacity="0.65"/><ellipse cx="16" cy="46" rx="2.1" ry="1.8" fill="#d8d4cc" opacity="0.32"/><ellipse cx="71" cy="101" rx="0.9" ry="1.1" fill="#e6e3dd" opacity="0.38"/><ellipse cx="11" cy="80" rx="2.2" ry="2.3" fill="#d8d4cc" opacity="0.76"/><ellipse cx="40" cy="36" rx="0.7" ry="0.9" fill="#e6e3dd" opacity="0.75"/><ellipse cx="106" cy="22" rx="2.4" ry="2.3" fill="#d8d4cc" opacity="0.32"/><ellipse cx="41" cy="78" rx="1.0" ry="1.2" fill="#d8d4cc" opacity="0.48"/><ellipse cx="96" cy="90" rx="1.7" ry="2.3" fill="#e6e3dd" opacity="0.32"/><ellipse cx="19" cy="67" rx="2.0" ry="2.2" fill="#d8d4cc" opacity="0.46"/><ellipse cx="48" cy="92" rx="2.8" ry="2.1" fill="#e6e3dd" opacity="0.69"/><ellipse cx="25" cy="78" rx="1.9" ry="1.9" fill="#d8d4cc" opacity="0.66"/><ellipse cx="88" cy="61" rx="1.3" ry="1.1" fill="#d8d4cc" opacity="0.57"/><ellipse cx="13" cy="9" rx="1.0" ry="1.3" fill="#e6e3dd" opacity="0.65"/><ellipse cx="68" cy="24" rx="2.2" ry="2.2" fill="#d8d4cc" opacity="0.58"/><ellipse cx="67" cy="74" rx="1.1" ry="1.5" fill="#d8d4cc" opacity="0.84"/><ellipse cx="58" cy="42" rx="2.2" ry="1.9" fill="#d8d4cc" opacity="0.80"/><ellipse cx="38" cy="30" rx="1.5" ry="1.2" fill="#e6e3dd" opacity="0.33"/><ellipse cx="80" cy="78" rx="0.9" ry="0.7" fill="#d8d4cc" opacity="0.35"/><ellipse cx="86" cy="87" rx="0.9" ry="0.8" fill="#e6e3dd" opacity="0.43"/><ellipse cx="17" cy="61" rx="2.7" ry="2.3" fill="#d8d4cc" opacity="0.60"/><ellipse cx="102" cy="26" rx="1.1" ry="1.5" fill="#d8d4cc" opacity="0.48"/><ellipse cx="17" cy="93" rx="2.9" ry="2.2" fill="#e6e3dd" opacity="0.78"/><ellipse cx="94" cy="47" rx="2.2" ry="2.5" fill="#d8d4cc" opacity="0.53"/><ellipse cx="44" cy="64" rx="2.2" ry="2.5" fill="#e6e3dd" opacity="0.71"/><ellipse cx="90" cy="88" rx="0.6" ry="0.8" fill="#e6e3dd" opacity="0.65"/><ellipse cx="122" cy="68" rx="1.6" ry="1.3" fill="#e6e3dd" opacity="0.37"/><ellipse cx="55" cy="91" rx="1.3" ry="1.0" fill="#e6e3dd" opacity="0.76"/><ellipse cx="116" cy="23" rx="1.7" ry="2.0" fill="#e6e3dd" opacity="0.47"/><ellipse cx="133" cy="70" rx="2.6" ry="2.4" fill="#e6e3dd" opacity="0.43"/><ellipse cx="87" cy="31" rx="2.3" ry="1.9" fill="#e6e3dd" opacity="0.63"/><ellipse cx="52" cy="60" rx="1.7" ry="1.5" fill="#d8d4cc" opacity="0.66"/><ellipse cx="133" cy="67" rx="1.1" ry="1.1" fill="#e6e3dd" opacity="0.52"/><ellipse cx="71" cy="103" rx="1.9" ry="1.8" fill="#d8d4cc" opacity="0.66"/><ellipse cx="18" cy="32" rx="1.3" ry="1.2" fill="#e6e3dd" opacity="0.57"/><ellipse cx="67" cy="94" rx="2.4" ry="1.9" fill="#d8d4cc" opacity="0.39"/><path d="M0,5 Q42,1 77,-7 T140,-2" fill="none" stroke="#a7a29a" stroke-width="3.0" opacity="0.27"/><path d="M0,48 Q42,54 77,41 T140,35" fill="none" stroke="#a7a29a" stroke-width="2.6" opacity="0.38"/><path d="M0,69 Q42,53 77,72 T140,57" fill="none" stroke="#a7a29a" stroke-width="1.0" opacity="0.48"/></pattern><linearGradient id="sheen" x1="0" y1="0" x2="1" y2="0"><stop offset="0" stop-color="#fff" stop-opacity=".22"/><stop offset=".45" stop-color="#fff" stop-opacity="0"/><stop offset="1" stop-color="#fff" stop-opacity=".10"/></linearGradient><filter id="soft"><feGaussianBlur stdDeviation="14"/></filter></defs><rect width="800" height="600" fill="#e8e5e0"/><rect x="0" y="0" width="800" height="200" fill="#26333d"/><rect x="0" y="196" width="800" height="6" fill="#000" opacity=".18"/><rect x="12" y="14" width="146" height="172" rx="3" fill="#1f2a33" stroke="#000" stroke-opacity=".18"/><rect x="76" y="150" width="20" height="5" rx="2" fill="#c9a227"/><rect x="170" y="14" width="146" height="172" rx="3" fill="#1f2a33" stroke="#000" stroke-opacity=".18"/><rect x="234" y="150" width="20" height="5" rx="2" fill="#c9a227"/><rect x="328" y="14" width="146" height="172" rx="3" fill="#1f2a33" stroke="#000" stroke-opacity=".18"/><rect x="392" y="150" width="20" height="5" rx="2" fill="#c9a227"/><rect x="486" y="14" width="146" height="172" rx="3" fill="#1f2a33" stroke="#000" stroke-opacity=".18"/><rect x="550" y="150" width="20" height="5" rx="2" fill="#c9a227"/><rect x="644" y="14" width="146" height="172" rx="3" fill="#1f2a33" stroke="#000" stroke-opacity=".18"/><rect x="708" y="150" width="20" height="5" rx="2" fill="#c9a227"/><rect x="0" y="200" width="800" height="130" fill="url(#stone)" opacity=".9"/><rect x="0" y="330" width="800" height="26" fill="url(#stone)"/><rect x="0" y="330" width="800" height="26" fill="url(#sheen)"/><rect x="0" y="330" width="800" height="3" fill="#fff" opacity=".28"/><rect x="0" y="353" width="800" height="3" fill="#000" opacity=".22"/><rect x="0" y="356" width="800" height="244" fill="#1f2a33"/><rect x="18" y="376" width="176" height="196" rx="3" fill="#26333d" stroke="#000" stroke-opacity=".2"/><rect x="88" y="398" width="36" height="5" rx="2" fill="#c9a227"/><rect x="214" y="376" width="176" height="196" rx="3" fill="#26333d" stroke="#000" stroke-opacity=".2"/><rect x="284" y="398" width="36" height="5" rx="2" fill="#c9a227"/><rect x="410" y="376" width="176" height="196" rx="3" fill="#26333d" stroke="#000" stroke-opacity=".2"/><rect x="480" y="398" width="36" height="5" rx="2" fill="#c9a227"/><rect x="606" y="376" width="176" height="196" rx="3" fill="#26333d" stroke="#000" stroke-opacity=".2"/><rect x="676" y="398" width="36" height="5" rx="2" fill="#c9a227"/><rect x="300" y="318" width="200" height="14" rx="4" fill="#0e1114" opacity=".55"/><path d="M392,330 v-72 a28,28 0 0 1 56,0 v18" fill="none" stroke="#c9a227" stroke-width="7" stroke-linecap="round"/><rect width="800" height="600" fill="none"/></svg>